HIERARCHY
ROOT Hips
{
	OFFSET 0.000000 0.000000 0.000000 
	CHANNELS 6 Xposition Yposition Zposition Zrotation Yrotation Xrotation
	JOINT LeftUpLeg
	{
		OFFSET 1.363060 -1.794630 0.839290 
		CHANNELS 3 Zrotation Yrotation Xrotation
		JOINT LeftLeg
		{
			OFFSET 2.448110 -6.726130 0.000000 
			CHANNELS 3 Zrotation Yrotation Xrotation
			JOINT LeftFoot
			{
				OFFSET 2.562200 -7.039590 0.000000 
				CHANNELS 3 Zrotation Yrotation Xrotation
				JOINT LeftToeBase
				{
					OFFSET 0.157640 -0.433110 2.322550 
					CHANNELS 3 Zrotation Yrotation Xrotation
					End Site
					{
						OFFSET 0.000000 0.000000 0.000000 
					}
				}
			}
		}
	}
	JOINT RightUpLeg
	{
		OFFSET -1.305520 -1.794630 0.839290 
		CHANNELS 3 Zrotation Yrotation Xrotation
		JOINT RightLeg
		{
			OFFSET -2.542530 -6.985550 0.000000 
			CHANNELS 3 Zrotation Yrotation Xrotation
			JOINT RightFoot
			{
				OFFSET -2.568260 -7.056230 0.000000 
				CHANNELS 3 Zrotation Yrotation Xrotation
				JOINT RightToeBase
				{
					OFFSET -0.164730 -0.452590 2.363150 
					CHANNELS 3 Zrotation Yrotation Xrotation
					End Site
					{
						OFFSET 0.000000 0.000000 0.000000 
					}
				}
			}
		}
	}
	JOINT Spine
	{
		OFFSET 0.028270 2.035590 -0.193380 
		CHANNELS 3 Zrotation Yrotation Xrotation
		JOINT Spine1
		{
			OFFSET 0.056720 2.048850 -0.042750 
			CHANNELS 3 Zrotation Yrotation Xrotation
			JOINT Neck1
			{
				OFFSET -0.054170 1.746240 0.172020 
				CHANNELS 3 Zrotation Yrotation Xrotation
				JOINT Head
				{
					OFFSET 0.104070 1.761360 -0.123970 
					CHANNELS 3 Zrotation Yrotation Xrotation
					End Site
					{
						OFFSET 0.000000 0.000000 0.000000 
					}
				}
			}
			JOINT LeftArm
			{
				OFFSET 3.362410 1.200890 -0.311210 
				CHANNELS 3 Zrotation Yrotation Xrotation
				JOINT LeftForeArm
				{
					OFFSET 4.983000 -0.000000 -0.000000 
					CHANNELS 3 Zrotation Yrotation Xrotation
					JOINT LeftHand
					{
						OFFSET 3.483560 -0.000000 -0.000000 
						CHANNELS 3 Zrotation Yrotation Xrotation
						JOINT LeftHandIndex1
						{
							OFFSET 0.715260 -0.000000 -0.000000 
							CHANNELS 3 Zrotation Yrotation Xrotation
							End Site
							{
								OFFSET 0.000000 0.000000 0.000000 
							}
						}
					}
				}
			}
			JOINT RightArm
			{
				OFFSET -3.136600 1.374050 -0.404650 
				CHANNELS 3 Zrotation Yrotation Xrotation
				JOINT RightForeArm
				{
					OFFSET -5.241900 -0.000000 -0.000000 
					CHANNELS 3 Zrotation Yrotation Xrotation
					JOINT RightHand
					{
						OFFSET -3.444170 -0.000000 -0.000000 
						CHANNELS 3 Zrotation Yrotation Xrotation
						JOINT RightHandIndex1
						{
							OFFSET -0.622530 -0.000000 -0.000000 
							CHANNELS 3 Zrotation Yrotation Xrotation
							End Site
							{
								OFFSET 0.000000 0.000000 0.000000 
							}
						}
					}
				}
			}
		}
	}
}
MOTION
Frames: 18
Frame Time: 0.041667
-4.520003 17.628415 -14.138682 4.389081 5.153938 -0.324627 -14.060624 5.687981 -1.880711 0.565606 9.848498 27.305410 -4.019023 14.410147 -7.001778 2.990100 -10.679000 -31.204600 -0.042937 0.958212 -22.306359 -4.463352 -14.097425 40.218721 2.588626 -10.703609 -0.197519 -0.186600 -2.781800 7.672000 1.107248 -7.406158 -3.486583 8.729795 -3.930324 -4.331349 9.638300 -10.548664 5.981013 2.641800 -5.163500 3.418200 -93.755933 -0.279688 12.304325 16.737404 -34.656058 -6.321396 -0.241448 0.779511 3.783488 -7.125000 0.000000 0.000000 35.288173 44.021504 3.147043 -153.176212 38.893543 -111.655177 1.666254 0.569434 -7.221204 7.125000 0.000000 0.000000 
-4.417969 17.625621 -14.269173 4.572546 5.258535 -0.082133 -14.636285 6.006045 -2.473728 0.470947 9.726326 26.914886 -4.083159 14.594894 -7.324800 3.129300 -10.901500 -31.948300 -0.705268 1.120776 -22.751950 -4.435683 -13.990486 39.919319 2.656139 -10.937273 0.440801 -0.203700 -2.906000 8.017300 1.055089 -7.507521 -3.454342 8.715250 -3.983942 -4.212360 9.645852 -10.497310 5.788520 2.604800 -5.139200 3.309400 -93.576664 -0.203553 13.267938 17.779460 -35.723803 -6.815987 -0.235095 0.819278 2.969557 -7.125000 0.000000 0.000000 34.979892 44.505891 2.857105 -153.135975 38.923799 -111.640401 1.658373 0.589319 -8.056554 7.125000 0.000000 0.000000 
-4.317695 17.618895 -14.399044 4.489265 5.347588 0.112444 -14.909117 6.179184 -3.041724 0.396514 9.640433 26.646971 -4.055389 14.523477 -7.760997 3.069400 -10.806600 -31.630400 -1.063916 1.243128 -23.088883 -4.358910 -13.848615 39.453075 2.753974 -11.280592 1.139281 -0.221500 -3.029600 8.361100 1.028983 -7.309139 -3.392961 8.622513 -3.892868 -4.129238 9.963023 -10.657036 5.557611 2.812400 -5.227800 3.301500 -93.654959 -0.243430 14.528896 18.710782 -36.656543 -7.245801 -0.220842 0.875594 2.429986 -7.125000 0.000000 0.000000 34.161358 44.531360 1.939653 -153.067439 38.972555 -111.605294 1.637723 0.597825 -8.585292 7.125000 0.000000 0.000000 
-4.219490 17.617136 -14.528810 4.406603 5.416997 0.277993 -15.135379 6.446032 -3.629817 0.340439 9.570020 26.442686 -3.924282 14.169451 -8.074447 3.015400 -10.720000 -31.341300 -1.454990 1.492933 -23.304806 -4.259119 -13.688057 38.915251 2.807859 -11.494366 1.773738 -0.326100 -3.670500 10.151400 0.997329 -7.276990 -3.339939 8.512828 -3.884306 -4.047208 10.033432 -10.678398 5.365739 2.816300 -5.241700 3.189500 -93.553171 -0.249817 15.062107 19.416321 -37.336548 -7.598054 -0.212256 0.904455 2.232975 -7.125000 0.000000 0.000000 34.048561 44.851301 1.707247 -153.022398 39.024370 -111.568589 1.636576 0.594040 -8.817965 7.125000 0.000000 0.000000 
-4.126046 17.630175 -14.655369 4.282963 5.474001 0.420041 -15.248662 6.865777 -4.302268 0.319832 9.538340 26.372344 -3.652003 13.427242 -8.206900 2.968200 -10.643300 -31.086200 -1.828578 2.039396 -23.315379 -4.123920 -13.502103 38.273833 2.891772 -11.761735 2.066977 -0.697600 -5.338900 14.877700 0.988545 -7.022252 -3.268506 8.470775 -3.767820 -3.944481 10.067579 -10.958959 5.355727 2.827500 -5.377100 3.265700 -93.668498 -0.352333 15.821026 19.911606 -37.800772 -7.823048 -0.209299 0.906440 2.216019 -7.125000 0.000000 0.000000 33.516808 44.775059 1.149682 -152.948788 39.084585 -111.528174 1.628532 0.590121 -8.905312 7.125000 0.000000 0.000000 
-4.040983 17.646214 -14.778099 4.248139 5.530924 0.605500 -15.403911 7.298910 -5.063078 0.319058 9.533821 26.381351 -3.306275 12.482640 -8.112964 2.909300 -10.546800 -30.766200 -2.221382 2.500723 -23.338702 -3.987812 -13.307389 37.610527 3.044458 -12.196790 2.076307 -1.323100 -7.284900 20.562200 0.984725 -6.782151 -3.220574 8.531263 -3.651144 -3.863769 10.364303 -11.205439 5.316451 3.016500 -5.501300 3.340700 -93.745416 -0.329347 16.558736 20.190738 -38.068647 -7.937317 -0.210881 0.894491 2.106327 -7.125000 0.000000 0.000000 33.145324 44.692916 0.795319 -152.911058 39.119902 -111.502056 1.618755 0.592558 -9.056589 7.125000 0.000000 0.000000 
-3.966476 17.655010 -14.899794 4.609917 5.614654 0.844506 -15.957150 7.722773 -5.878436 0.330057 9.557463 26.458975 -2.983656 11.603514 -7.799580 2.919200 -10.563100 -30.820200 -2.912995 2.686699 -23.447331 -3.887927 -13.117176 36.985059 3.250873 -12.802128 2.191912 -1.809500 -8.457500 24.112500 0.929549 -6.998367 -3.212761 8.701390 -3.755016 -3.760374 10.620690 -10.989515 5.227629 3.110100 -5.394500 3.207400 -93.385338 -0.158090 16.283823 20.193771 -38.081367 -7.966718 -0.213387 0.879629 1.895062 -7.125000 0.000000 0.000000 34.060030 45.401458 1.640401 -152.970013 39.113479 -111.500328 1.634296 0.590210 -9.260417 7.125000 0.000000 0.000000 
-3.898592 17.664427 -15.018178 5.098992 5.663729 1.093470 -16.687167 8.099700 -6.702768 0.353232 9.611975 26.615755 -2.761352 10.998323 -7.479165 2.947700 -10.609900 -30.975200 -3.683884 2.927531 -23.508017 -3.804849 -12.951635 36.470448 3.395904 -13.174108 1.968294 -2.097600 -9.066500 26.003500 0.812966 -6.820547 -3.172367 8.733390 -3.665679 -3.643905 10.984218 -11.201397 5.231763 3.315100 -5.499100 3.259300 -93.188899 -0.153011 16.385002 19.916426 -37.839086 -7.826190 -0.206751 0.870436 2.069044 -7.125000 0.000000 0.000000 34.425637 45.289473 1.811687 -153.038121 39.062016 -111.540501 1.642904 0.582839 -9.399082 7.125000 0.000000 0.000000 
-3.834019 17.682123 -15.130249 5.246274 5.682380 1.275491 -17.114179 8.251138 -7.422025 0.383894 9.687852 26.824730 -2.681076 10.771495 -7.263300 2.936600 -10.591700 -30.914800 -4.103838 3.312629 -23.455833 -3.696565 -12.818655 36.111111 3.328239 -12.792686 0.724800 -2.275100 -9.417000 27.108500 0.727141 -6.641713 -3.143624 8.628009 -3.582107 -3.574729 11.312533 -11.499210 5.551026 3.099300 -5.604300 3.091800 -92.923092 -0.044607 16.110224 19.414027 -37.380429 -7.585191 -0.202508 0.855756 2.535997 -7.125000 0.000000 0.000000 35.014786 45.204815 2.145719 -153.157221 38.947013 -111.629082 1.657110 0.580234 -9.340543 7.125000 0.000000 0.000000 
-3.771516 17.702198 -15.240044 5.024318 5.756264 1.356945 -17.158027 8.182231 -8.003375 0.423216 9.779734 27.080021 -2.652538 10.678867 -7.109466 2.864600 -10.472500 -30.520800 -4.055839 3.453110 -23.395603 -3.583138 -12.721898 35.867427 3.200597 -12.233809 -1.121151 -2.162600 -9.196900 26.413200 0.697852 -6.459741 -3.151736 8.472677 -3.485487 -3.695503 11.381094 -11.686248 5.802405 3.129100 -5.684600 3.221700 -92.721211 0.208292 15.608130 18.767787 -36.770809 -7.275700 -0.202872 0.836889 2.964248 -7.125000 0.000000 0.000000 35.542404 45.121142 2.468403 -153.267481 38.831772 -111.710556 1.665158 0.582544 -9.093525 7.125000 0.000000 0.000000 
-3.708598 17.721963 -15.349218 4.621138 5.845276 1.388745 -17.017856 7.964813 -8.525346 0.473193 9.893183 27.396637 -2.666562 10.698548 -6.998196 2.779200 -10.328800 -30.048100 -3.700381 3.179176 -23.478375 -3.502317 -12.657917 35.708554 3.193194 -12.109499 -2.701834 -1.816300 -8.472400 24.158400 0.721072 -6.334677 -3.170129 8.366259 -3.413237 -3.880679 11.492965 -11.728512 5.947156 3.203500 -5.701700 3.299200 -92.636668 0.477561 14.670144 18.034884 -36.049320 -6.934099 -0.205395 0.813158 3.389618 -7.125000 0.000000 0.000000 35.905436 45.191332 2.922520 -153.333165 38.745708 -111.765968 1.674962 0.585011 -8.811745 7.125000 0.000000 0.000000 
-3.650752 17.743384 -15.454563 4.075738 5.890233 1.309982 -16.713856 7.691626 -8.920776 0.532554 10.017941 27.745571 -2.733379 10.860580 -6.931847 2.697100 -10.187800 -29.586900 -3.152070 2.840338 -23.559166 -3.466848 -12.649741 35.712634 3.220843 -12.150179 -3.754293 -1.563200 -7.890000 22.380500 0.782860 -6.185238 -3.126444 8.304847 -3.346534 -3.921259 11.528379 -11.737356 5.934387 3.238500 -5.709000 3.308400 -92.573378 0.647549 13.578419 17.231099 -35.238220 -6.568180 -0.212658 0.790311 3.835889 -7.125000 0.000000 0.000000 36.067361 45.460844 3.277139 -153.365609 38.692434 -111.800224 1.686364 0.586165 -8.568585 7.125000 0.000000 0.000000 
-3.601494 17.761080 -15.555665 3.475398 5.812948 1.107702 -16.333450 7.489168 -9.182484 0.593411 10.132692 28.069544 -2.817335 11.071070 -6.901588 2.576400 -9.975500 -28.897400 -2.512935 2.579209 -23.560991 -3.496922 -12.727444 36.005521 3.100750 -11.810508 -4.312743 -1.644400 -8.082500 22.964900 0.852971 -6.185605 -3.028542 8.277827 -3.374188 -3.799494 11.492131 -11.477126 5.826495 3.192300 -5.579600 3.217200 -92.268681 0.829498 12.058982 16.343288 -34.320021 -6.192806 -0.230863 0.768642 4.184883 -7.125000 0.000000 0.000000 36.702463 46.215592 3.921397 -153.398382 38.685141 -111.799656 1.712639 0.565560 -8.247027 7.125000 0.000000 0.000000 
-3.555652 17.771635 -15.653766 3.161215 5.592147 0.963046 -16.273089 7.386586 -9.473375 0.645668 10.234753 28.357123 -2.917687 11.333699 -6.899514 2.488200 -9.816400 -28.384400 -2.098330 2.196209 -23.678805 -3.625454 -12.891442 36.638570 2.787812 -10.940220 -4.271751 -1.801700 -8.440200 24.059400 0.872264 -5.954087 -2.941177 8.259222 -3.273092 -3.745211 11.534470 -11.376597 5.611536 3.216800 -5.539100 3.128200 -92.052401 1.030716 10.807773 15.384021 -33.308919 -5.777489 -0.249791 0.747339 4.596441 -7.125000 0.000000 0.000000 36.807976 46.540539 3.857161 -153.384756 38.716428 -111.773635 1.723049 0.541557 -8.067098 7.125000 0.000000 0.000000 
-3.515914 17.776602 -15.748660 3.224681 5.336983 0.936185 -16.605617 7.319825 -9.846659 0.689527 10.333135 28.637224 -2.995852 11.548214 -6.954696 2.430700 -9.710900 -28.045400 -1.938271 1.538548 -23.978780 -3.862769 -13.140458 37.618802 2.421795 -9.917076 -3.830473 -1.733700 -8.287900 23.591900 0.829967 -5.735072 -2.896611 8.281130 -3.162148 -3.747974 11.570315 -11.285277 5.304100 3.248600 -5.511500 2.987600 -91.846500 1.161486 8.967481 14.315680 -32.122899 -5.331511 -0.265163 0.721249 5.526111 -7.125000 0.000000 0.000000 36.965535 46.776613 3.685232 -153.400997 38.723017 -111.770125 1.725059 0.532090 -8.010390 7.125000 0.000000 0.000000 
-3.486732 17.775153 -15.841173 3.386137 5.135845 0.942913 -16.995022 7.198300 -10.227636 0.730456 10.431359 28.917336 -3.050890 11.704408 -7.046993 2.351000 -9.561700 -27.568800 -1.784628 0.864912 -24.281086 -4.182299 -13.470719 38.917417 2.080685 -8.954878 -3.563759 -1.676300 -8.156500 23.190400 0.770256 -5.529476 -2.866903 8.326329 -3.055791 -3.768853 11.692920 -11.222896 5.062498 3.317400 -5.490800 2.911400 -91.463190 1.440475 7.461173 13.313775 -30.987775 -4.923871 -0.286525 0.691999 6.136180 -7.125000 0.000000 0.000000 37.302264 46.903138 3.718307 -153.481955 38.665125 -111.806153 1.731963 0.518249 -7.868131 7.125000 0.000000 0.000000 
-3.462931 17.771635 -15.930685 3.375754 5.006437 0.929142 -17.148922 7.122554 -10.616376 0.779422 10.529391 29.205258 -3.063384 11.738152 -7.086868 2.274600 -9.416000 -27.105600 -1.423473 0.365010 -24.486746 -4.555818 -13.864077 40.454670 1.855971 -8.317918 -3.843658 -1.524900 -7.797100 22.099500 0.748823 -5.362710 -2.851219 8.384283 -2.969547 -3.823653 11.766568 -11.164979 5.015144 3.369700 -5.462700 2.933600 -91.071493 1.854314 5.996260 12.379275 -29.899023 -4.553250 -0.307674 0.662994 6.802452 -7.125000 0.000000 0.000000 37.797995 46.927180 4.036355 -153.553639 38.623438 -111.822700 1.741975 0.495126 -7.678125 7.125000 0.000000 0.000000 
-3.441097 17.769462 -16.014919 3.263346 4.989692 0.917486 -17.153237 7.158319 -11.040806 0.839553 10.631002 29.518127 -2.987829 11.530500 -7.081657 2.196000 -9.262900 -26.621100 -0.923552 -0.148363 -24.630699 -4.969841 -14.289638 42.131337 1.710366 -7.913896 -4.415556 -1.288100 -7.191600 20.284300 0.746386 -5.470129 -2.822320 8.400638 -3.033549 -3.749374 11.590214 -10.929015 5.029559 3.267000 -5.342300 2.908400 -90.539288 2.314493 3.924229 11.454117 -28.770695 -4.209419 -0.326122 0.633022 7.673575 -7.125000 0.000000 0.000000 38.950843 47.289939 4.951359 -153.643598 38.605147 -111.829387 1.758666 0.482084 -7.507010 7.125000 0.000000 0.000000 
